<svg width="104" height="102" viewBox="0 0 104 102" fill="none" xmlns="http://www.w3.org/2000/svg">
<path d="M99.2844 59.9262C101.06 56.4203 102.358 52.6641 103.132 48.7711C105.235 36.3685 102.229 24.9021 94.0939 14.8957C82.3777 1.49176 65.3996 -3.0418 48.6534 2.01032C44.8584 3.2399 41.2897 5.03876 37.929 7.19028L33.236 2.57863C31.925 1.29042 29.7108 2.23028 29.7269 4.06819L29.8975 23.5741C29.9075 24.7135 30.8393 25.6291 31.9786 25.6191L51.4847 25.4486C53.3226 25.4325 54.2237 23.2023 52.9127 21.9139L47.8347 16.9241C49.46 15.8487 51.1705 14.8916 52.979 14.1444C64.5131 9.60664 77.11 11.6519 87.082 21.2245C94.2705 28.7872 97.1869 37.6977 96.3477 47.7694C95.9379 51.0249 95.1184 54.2576 93.8661 57.3538C92.5458 60.4271 90.77 63.2729 88.6528 65.9136C86.4673 68.4634 83.8949 70.7399 81.0718 72.6523C80.3889 73.0849 79.6831 73.4946 78.9774 73.8816C80.3661 74.7467 81.7775 75.5664 83.189 76.3859C83.2118 76.3632 83.2574 76.3632 83.2801 76.3404C86.6039 74.4281 89.7229 72.1288 92.4547 69.3741C95.1184 66.5511 97.4632 63.3867 99.2844 59.9262Z" fill="#FFD227"/>
<path d="M51.3819 42.8257C50.5254 43.4639 49.3761 44.2461 47.9246 45.1745C46.2116 46.2829 44.7865 47.2738 43.6829 48.1208C42.5361 49.0037 41.5427 50.0425 40.7342 51.2086C39.8538 52.4778 39.4075 53.8884 39.4075 55.3976C39.4075 56.2828 39.7241 57.0603 40.3264 57.6408C40.9166 58.2117 41.6915 58.5141 42.5625 58.5141H56.5833C57.3344 58.5141 58.0109 58.2454 58.5435 57.7343C59.0857 57.2138 59.3736 56.53 59.3736 55.7598C59.3736 55.0017 59.0929 54.3203 58.5627 53.7853L58.5603 53.783C58.0277 53.2502 57.344 52.9695 56.5833 52.9695H46.5835C47.4233 52.3049 48.6588 51.4245 50.2423 50.3592C52.1304 49.1332 53.6875 48.0368 54.8776 47.0964C56.1299 46.103 57.2239 44.9298 58.126 43.6127C59.0977 42.1851 59.5919 40.6137 59.5919 38.9415C59.5919 37.2476 59.1505 35.724 58.2797 34.4118C57.4207 33.1186 56.2426 32.1013 54.7767 31.3864C53.342 30.6905 51.737 30.3379 50.0096 30.3379C46.929 30.3379 44.0308 31.0049 41.3557 32.3388C40.4271 32.8451 39.9162 33.7063 39.9162 34.7645C39.9162 35.5034 40.18 36.1559 40.6719 36.6431C41.4516 37.43 42.7328 37.6243 43.7141 37.1205C45.511 36.3239 47.4329 35.9184 49.4265 35.9184C51.0916 35.9184 52.3248 36.2304 52.9845 36.8205C53.6276 37.3963 53.9394 38.1738 53.9394 39.1957C53.9394 39.798 53.733 40.3642 53.3109 40.9304C52.8071 41.6021 52.1568 42.2403 51.3819 42.8257Z" fill="#FFD227"/>
<path d="M82.4249 31.4971C81.8084 30.8589 80.9758 30.5205 80.0138 30.5205H79.2892C78.1291 30.5205 77.0693 31.0819 76.5061 31.8617L65.1051 46.4201C64.6397 47.003 64.4021 47.7012 64.4021 48.4954V48.8216C64.4021 49.7358 64.7453 50.549 65.3882 51.1704C66.0241 51.7918 66.8374 52.1206 67.7371 52.1206H77.5881V55.8321C77.5881 56.6215 77.876 57.3244 78.4207 57.8643C78.9653 58.4088 79.6682 58.6967 80.4504 58.6967C81.2253 58.6967 81.9283 58.4137 82.4825 57.8811C83.0511 57.334 83.351 56.6262 83.351 55.8321V52.1206H84.8817C85.6087 52.1206 86.266 51.8591 86.7818 51.3648C87.3169 50.8561 87.6 50.1892 87.6 49.4406C87.6 48.7017 87.3242 48.0371 86.8035 47.5164C86.2852 46.9959 85.6206 46.7223 84.8817 46.7223H83.351V33.8555C83.351 32.9342 83.0296 32.1161 82.4249 31.4971ZM77.5881 46.7223H71.6598L77.5881 39.0785V46.7223Z" fill="#FFD227"/>
<path d="M6.58238 23.0002C3.28132 26.7339 0.890947 31.4918 0.208003 36.8418C-0.748119 44.2407 1.66504 52.1631 5.94501 59.1978C10.3388 66.4373 16.3488 72.6295 22.3136 78.6397C31.9434 88.4745 43.0076 98.8557 56.1206 101.246C64.8854 102.885 73.2177 100.313 78.8636 95.2359C78.6132 95.1677 78.3627 95.0539 78.1351 94.9173C70.5312 90.8877 63.1324 86.2207 56.2117 81.0757C55.2783 80.3927 54.5498 79.5276 54.0717 78.5487C51.4991 80.5521 48.3802 81.8042 44.8744 81.235C40.731 80.5747 37.134 77.5014 33.9468 74.4735C31.6931 72.3336 29.4847 70.1253 27.3447 67.8716C24.2942 64.6843 21.2207 61.0418 20.5606 56.8985C20.0142 53.4152 21.2435 50.3419 23.2469 47.7694C22.268 47.2458 21.4029 46.5173 20.72 45.6066C15.5749 38.6631 10.9307 31.287 6.87835 23.6604C6.76455 23.4556 6.65074 23.2278 6.58238 23.0002Z" fill="#FFD227"/>
<path d="M16.052 15.9105C14.6494 16.6251 13.247 17.3396 11.8443 18.0542C11.3938 18.2842 11.0492 18.64 10.8283 19.072C10.4836 19.7946 10.4648 20.7005 10.904 21.5278C14.8682 29.0101 19.3784 36.1474 24.3832 42.8892C25.1425 43.9123 26.4369 44.2454 27.4707 43.7767C27.6289 43.7057 27.7743 43.6188 27.9084 43.516C29.1572 42.5579 30.4061 41.5996 31.655 40.6415C32.7229 39.8173 32.9008 38.2668 32.0868 37.17C27.3696 30.8157 23.1185 24.0884 19.3821 17.036C18.7279 15.8019 17.2557 15.3014 16.052 15.9105Z" fill="#FFD227"/>
<path d="M80.2839 90.9075C81.0937 91.3371 82.0172 91.3284 82.7397 90.9833C83.1721 90.7623 83.5277 90.4178 83.7574 89.9672C84.4721 88.5646 85.1866 87.1622 85.9013 85.7595C86.5104 84.5556 85.9923 83.0749 84.7756 82.4294C77.7232 78.693 70.9958 74.4421 64.6416 69.7245C63.5449 68.911 61.9953 69.088 61.1701 70.1564C60.2119 71.4053 59.2537 72.6542 58.2954 73.9031C58.1929 74.0366 58.1062 74.1829 58.0466 74.326C57.5501 75.3626 57.8996 76.6692 58.9225 77.4283C65.6642 82.433 72.8015 86.9433 80.2839 90.9075Z" fill="#FFD227"/>
</svg>
