<svg width="113" height="113" viewBox="0 0 113 113" fill="none" xmlns="http://www.w3.org/2000/svg">
<path d="M88.4654 93.8364C84.7953 93.8364 81.647 96.1051 80.3441 99.3133H72.6921V105.885H80.3441C81.647 109.094 84.7953 111.362 88.4654 111.362C93.2973 111.362 97.2283 107.431 97.2283 102.599C97.2283 97.7675 93.2973 93.8364 88.4654 93.8364Z" fill="#FFD227"/>
<path d="M103.801 75.2153C102.36 75.2153 101.001 75.5667 99.8011 76.1851L91.6645 69.4046C91.0739 68.9125 90.3295 68.6431 89.5608 68.6431H72.6921V75.2153H88.371L95.5051 81.1605C95.2036 82.0453 95.0376 82.9924 95.0376 83.9782C95.0376 88.8101 98.9686 92.7411 103.801 92.7411C108.632 92.7411 112.563 88.8101 112.563 83.9782C112.563 79.1463 108.632 75.2153 103.801 75.2153Z" fill="#FFD227"/>
<path d="M103.801 47.8313C100.13 47.8313 96.9821 50.1 95.6792 53.3081H72.6921V59.8803H95.6792C96.9821 63.0884 100.13 65.3571 103.801 65.3571C108.632 65.3571 112.563 61.4261 112.563 56.5942C112.563 51.7623 108.632 47.8313 103.801 47.8313Z" fill="#FFD227"/>
<path d="M91.6645 43.7836L99.8011 37.0031C101.001 37.6217 102.36 37.9731 103.801 37.9731C108.632 37.9731 112.563 34.0421 112.563 29.2102C112.563 24.3783 108.632 20.4473 103.801 20.4473C98.9686 20.4473 95.0376 24.3783 95.0376 29.2102C95.0376 30.196 95.2036 31.1431 95.5051 32.0279L88.371 37.9731H72.6921V44.5453H89.5608C90.3295 44.5453 91.0739 44.2758 91.6645 43.7836Z" fill="#FFD227"/>
<path d="M88.4654 19.3518C93.2973 19.3518 97.2283 15.4207 97.2283 10.5888C97.2283 5.75697 93.2973 1.82593 88.4654 1.82593C84.7953 1.82593 81.647 4.09465 80.3441 7.30275H72.6921V13.8749H80.3441C81.647 17.083 84.7953 19.3518 88.4654 19.3518Z" fill="#FFD227"/>
<path d="M62.8338 0.730469H49.6894C47.8746 0.730469 46.4033 2.20176 46.4033 4.01656V8.29397C40.237 9.55013 34.3361 11.9948 29.0799 15.4706L26.0545 12.4454C24.7711 11.1621 22.6906 11.1621 21.4073 12.4454L12.1129 21.7398C10.8295 23.0229 10.8295 25.1037 12.1129 26.387L15.1381 29.4124C11.6622 34.6686 9.21761 40.5696 7.96145 46.7358H3.68404C1.86924 46.7358 0.397949 48.2071 0.397949 50.0219V63.1663C0.397949 64.9811 1.86924 66.4524 3.68404 66.4524H7.96145C9.21761 72.6186 11.6622 78.5196 15.1381 83.776L12.1127 86.8014C11.4964 87.4177 11.1503 88.2534 11.1503 89.1249C11.1503 89.9964 11.4964 90.8319 12.1127 91.4482L21.4073 100.743C22.6906 102.026 24.7711 102.026 26.0545 100.743L29.0799 97.7176C34.3361 101.193 40.237 103.638 46.4033 104.894V109.172C46.4033 110.986 47.8746 112.458 49.6894 112.458H62.8338C64.6486 112.458 66.1199 110.986 66.1199 109.172V84.4773C63.0349 85.5713 59.717 86.169 56.2616 86.169C39.954 86.169 26.6867 72.9017 26.6867 56.5941C26.6867 40.2865 39.954 27.0192 56.2616 27.0192C59.717 27.0192 63.0349 27.6169 66.1199 28.7109V4.01656C66.1199 2.20176 64.6486 0.730469 62.8338 0.730469Z" fill="#FFD227"/>
<path fill-rule="evenodd" clip-rule="evenodd" d="M56.2615 79.5969C43.5778 79.5969 33.2588 69.2779 33.2588 56.5942C33.2588 43.9106 43.5778 33.5916 56.2615 33.5916C59.7874 33.5916 63.1301 34.3901 66.1197 35.814V43.2788C63.6267 41.7468 60.6735 40.8604 57.5077 40.8604C48.5836 40.8604 41.3491 47.9046 41.3491 56.5941C41.3491 65.2836 48.5836 72.3279 57.5077 72.3279C60.6735 72.3279 63.6267 71.4414 66.1197 69.9094V77.3744C63.1301 78.7984 59.7874 79.5969 56.2615 79.5969Z" fill="#FFD227"/>
<path fill-rule="evenodd" clip-rule="evenodd" d="M52.1388 93.8364C34.151 93.8364 19.5168 77.1295 19.5168 56.5941C19.5168 36.0587 34.151 19.3518 52.1388 19.3518C57.1393 19.3518 61.8797 20.6446 66.1196 22.9501V32.0876C62.5018 29.8548 58.3376 28.5833 53.9062 28.5833C39.9895 28.5833 28.7078 41.1242 28.7078 56.5941C28.7078 72.0641 39.9895 84.605 53.9062 84.605C58.3376 84.605 62.5018 83.3335 66.1196 81.1007V90.2381C61.8797 92.5435 57.1393 93.8364 52.1388 93.8364Z" fill="white"/>
</svg>
