<svg width="125" height="125" viewBox="0 0 125 125" fill="none" xmlns="http://www.w3.org/2000/svg">
<path d="M49.4504 79.7294V75.0842H62.3276C62.1316 74.2218 61.8376 73.477 61.4456 72.8498C61.0536 72.2226 60.6224 71.6346 60.152 71.0858H49.1564V65.5586H75.3224V71.0858H67.3844C67.698 71.517 68.0312 72.0462 68.384 72.6734C68.776 73.2614 69.0896 74.065 69.3248 75.0842H75.0284V79.7294H69.9716C69.9716 80.9446 69.6972 82.0814 69.1484 83.1398C68.5996 84.1982 67.8548 85.139 66.914 85.9622C66.0124 86.7462 64.9736 87.3734 63.7976 87.8438C62.6216 88.3142 61.3868 88.5886 60.0932 88.667L70.0304 99.3098L64.268 103.72L55.6244 92.9006C54.958 92.1166 54.3308 91.3914 53.7428 90.725C53.1548 90.0194 52.6256 89.4118 52.1552 88.9022C51.6064 88.3142 51.0968 87.7654 50.6264 87.2558L52.508 83.0222C53.0568 83.2182 53.5664 83.375 54.0368 83.4926C54.5464 83.571 55.154 83.6102 55.8596 83.6102C57.8588 83.6102 59.4072 83.2378 60.5048 82.493C61.6416 81.709 62.2884 80.7878 62.4452 79.7294H49.4504Z" fill="#FFD227"/>
<path d="M111.303 17.2101L111.135 17.3959L111.303 17.2101C109.426 15.5209 106.536 15.6712 104.846 17.5492C103.157 19.4256 103.307 22.3147 105.184 24.0054L105.184 24.0055L107.708 26.2774L107.645 26.2773L105.758 26.2742L100.029 26.2646L91.6926 26.2507C90.0128 26.2507 88.4318 26.9054 87.2438 28.092C86.0513 29.2816 85.3951 30.8655 85.3951 32.5496V49.5302C79.9881 45.9766 73.6757 43.6923 66.8815 43.0766V14.9576L70.8664 18.9424L70.8787 18.9547L70.8926 18.9652C72.6207 20.2694 74.01 20.5127 75.0994 20.281C76.176 20.052 76.9045 19.3688 77.3314 18.9426L77.3316 18.9424C79.1167 17.1574 79.1167 14.2637 77.3316 12.4786L77.1548 12.6554L77.3316 12.4786L66.9198 2.0696L66.9197 2.06949C65.9365 1.08777 64.6208 0.666427 63.3426 0.763974C63.2101 0.757404 63.0458 0.785359 62.8761 0.827144C62.6897 0.873041 62.4713 0.942336 62.2342 1.02912C61.7595 1.20282 61.1966 1.45149 60.6426 1.73881C60.089 2.02586 59.5379 2.3548 59.0895 2.69053C58.67 3.00466 58.3064 3.34922 58.1392 3.69388L49.353 12.48C47.5802 14.2529 47.4357 17.2837 49.3661 18.956C50.8876 20.2741 52.2816 20.5127 53.4204 20.2829C54.5434 20.0564 55.3788 19.3825 55.8181 18.944L55.8182 18.9438L57.7394 17.0227V43.273C50.8767 44.1932 44.5544 46.8238 39.2259 50.7367V32.551C39.2259 30.8669 38.5683 29.2816 37.3773 28.0935C36.1878 26.9054 34.6082 26.2521 32.9283 26.2521H32.9283H32.9283H32.9283H32.9282H32.9282H32.9282H32.9282H32.9281H32.9281H32.9281H32.9281H32.928H32.928H32.928H32.928H32.9279H32.9279H32.9279H32.9279H32.9278H32.9278H32.9278H32.9278H32.9277H32.9277H32.9277H32.9277H32.9277H32.9276H32.9276H32.9276H32.9276H32.9275H32.9275H32.9275H32.9275H32.9274H32.9274H32.9274H32.9274H32.9273H32.9273H32.9273H32.9273H32.9273H32.9272H32.9272H32.9272H32.9272H32.9271H32.9271H32.9271H32.9271H32.927H32.927H32.927H32.927H32.927H32.9269H32.9269H32.9269H32.9269H32.9268H32.9268H32.9268H32.9268H32.9267H32.9267H32.9267H32.9267H32.9267H32.9266H32.9266H32.9266H32.9266H32.9265H32.9265H32.9265H32.9265H32.9265H32.9264H32.9264H32.9264H32.9264H32.9263H32.9263H32.9263H32.9263H32.9263H32.9262H32.9262H32.9262H32.9262H32.9261H32.9261H32.9261H32.9261H32.9261H32.926H32.926H32.926H32.926H32.9259H32.9259H32.9259H32.9259H32.9259H32.9258H32.9258H32.9258H32.9258H32.9258H32.9257H32.9257H32.9257H32.9257H32.9256H32.9256H32.9256H32.9256H32.9256H32.9255H32.9255H32.9255H32.9255H32.9254H32.9254H32.9254H32.9254H32.9254H32.9253H32.9253H32.9253H32.9253H32.9253H32.9252H32.9252H32.9252H32.9252H32.9251H32.9251H32.9251H32.9251H32.9251H32.925H32.925H32.925H32.925H32.925H32.9249H32.9249H32.9249H32.9249H32.9249H32.9248H32.9248H32.9248H32.9248H32.9247H32.9247H32.9247H32.9247H32.9247H32.9246H32.9246H32.9246H32.9246H32.9246H32.9245H32.9245H32.9245H32.9245H32.9245H32.9244H32.9244H32.9244H32.9244H32.9244H32.9243H32.9243H32.9243H32.9243H32.9242H32.9242H32.9242H32.9242H32.9242H32.9241H32.9241H32.9241H32.9241H32.9241H32.924H32.924H32.924H32.924H32.924H32.9239H32.9239H32.9239H32.9239H32.9239H32.9238H32.9238H32.9238H32.9238H32.9238H32.9237H32.9237H32.9237H32.9237H32.9237H32.9236H32.9236H32.9236H32.9236H32.9235H32.9235H32.9235H32.9235H32.9235H32.9234H32.9234H32.9234H32.9234H32.9234H32.9233H32.9233H32.9233H32.9233H32.9233H32.9232H32.9232H32.9232H32.9232H32.9232H32.9231H32.9231H32.9231H32.9231H32.9231H32.923H32.923H32.923H32.923H32.923H32.9229H32.9229H32.9229H32.9229H32.9229H32.9228H32.9228H32.9228H32.9228H32.9228H32.9227H32.9227H32.9227H32.9227H32.9226H32.9226H32.9226H32.9226H32.9226H32.9225H32.9225H32.9225H32.9225H32.9225H32.9224H32.9224H32.9224H32.9224H32.9224H32.9223H32.9223H32.9223H32.9223H32.9223H32.9222H32.9222H32.9222H32.9222H32.9222H32.9221H32.9221H32.9221H32.9221H32.9221H32.922H32.922H32.922H32.922H32.922H32.9219H32.9219H32.9219H32.9219H32.9219H32.9218H32.9218H32.9218H32.9218H32.9217H32.9217H32.9217H32.9217H32.9217H32.9216H32.9216H32.9216H32.9216H32.9216H32.9215H32.9215H32.9215H32.9215H32.9215H32.9214H32.9214H32.9214H32.9214H32.9214H32.9213H32.9213H32.9213H32.9213H32.9213H32.9212H32.9212H32.9212H32.9212H32.9211H32.9211H32.9211H32.9211H32.9211H32.921H32.921H32.921H32.921H32.921H32.9209H32.9209H32.9209H32.9209H32.9209H32.9208H32.9208H32.9208H32.9208H32.9208H32.9207H32.9207H32.9207H32.9207H32.9206H32.9206H32.9206H32.9206H32.9206H32.9205H32.9205H32.9205H32.9205H32.9205H32.9204H32.9204H32.9204H32.9204H32.9204H32.9203H32.9203H32.9203H32.9203H32.9202H32.9202H32.9202H32.9202H32.9202H32.9201H32.9201H32.9201H32.9201H32.9201H32.92H32.92H32.92H32.92H32.9199H32.9199H32.9199H32.9199H32.9199H32.9198H32.9198H32.9198H32.9198H32.9198H32.9197H32.9197H32.9197H32.9197H32.9196H32.9196H32.9196H32.9196H32.9196H32.9195H32.9195H32.9195H32.9195H32.9194H32.9194H32.9194H32.9194H32.9194H32.9193H32.9193H32.9193H32.9193H32.9192H32.9192H32.9192H32.9192H32.9192H32.9191H32.9191H32.9191H32.9191H32.919H32.919H32.919H32.919H32.919H32.9189H32.9189H32.9189H32.9189H32.9188H32.9188H32.9188H32.9188H32.9188H32.9187H32.9187H32.9187H32.9187H32.9186H32.9186H32.9186H32.9186H32.9185H32.9185H32.9185H32.9185H32.9185H32.9184H32.9184H32.9184H32.9184H32.9183H32.9183H32.9183H32.9183H32.9182H32.9182H32.9182H32.9182H32.9182H32.9181H32.9181H32.9181H32.9181H32.918H32.918H32.918H32.918H32.9179H32.9179H32.9179H32.9179H32.9179H32.9178H32.9178H32.9178H32.9178H32.9177H32.9177H32.9177H32.9177H32.9176H32.9176H32.9176H32.9176H32.9175H32.9175H32.9175H32.9175H32.9174H32.9174H32.9174H32.9174H32.9173H32.9173H32.9173H32.9173H32.9172H32.9172H32.9172H32.9172H32.9168L16.8611 26.2788L19.3855 24.0069L19.3855 24.0069C21.2621 22.3175 21.4123 19.4269 19.7231 17.5505C18.0338 15.674 15.1432 15.5237 13.2669 17.2114L13.2668 17.2115L2.32683 27.0632L2.31682 27.0722L2.30783 27.0822C0.89946 28.6562 0.621718 30.2411 0.796678 31.5357C0.96981 32.8168 1.58403 33.8028 1.95141 34.2118L1.95164 34.2121L11.8032 45.1505C12.2643 45.6628 13.2426 46.3261 14.4174 46.5768C15.6057 46.8304 17.0049 46.6624 18.2614 45.488C20.1363 43.7984 20.2859 40.909 18.5972 39.0332L18.5972 39.0332L15.3452 35.4239L30.0843 35.4002L30.0845 35.4137C30.0868 35.5838 30.0903 35.8332 30.0949 36.151C30.1041 36.7864 30.1178 37.695 30.1358 38.7874C30.1719 40.9722 30.2251 43.8929 30.294 46.8356C30.3629 49.7781 30.4475 52.744 30.5462 55.0191C30.5955 56.1562 30.6484 57.1231 30.7049 57.829C30.7331 58.1815 30.7625 58.4726 30.7932 58.6886C30.8086 58.7962 30.8248 58.8896 30.8426 58.9646C30.8449 58.9743 30.8474 58.9847 30.8502 58.9956C25.7155 65.7841 22.6623 74.2382 22.6623 83.4061C22.6665 105.777 40.8026 123.911 63.1744 123.911C85.5462 123.911 103.682 105.777 103.682 83.4047C103.682 73.5896 100.188 64.5908 94.3798 57.5807C94.3798 57.5801 94.3799 57.5794 94.3799 57.5788C94.383 57.5233 94.386 57.4486 94.3889 57.3569C94.3948 57.1732 94.4005 56.9154 94.406 56.595C94.4171 55.9539 94.4277 55.0584 94.4376 53.9945C94.4576 51.8667 94.4751 49.0634 94.4896 46.2716C94.5042 43.4798 94.5157 40.6992 94.5236 38.6165C94.5276 37.5752 94.5306 36.7084 94.5327 36.1019L94.535 35.3988L109.223 35.4226L105.971 39.0318L105.971 39.0318C104.282 40.9083 104.432 43.7974 106.308 45.4881L106.308 45.4882C106.764 45.8982 107.748 46.4088 108.924 46.5259C110.112 46.6443 111.507 46.361 112.752 45.162L112.759 45.1558L112.765 45.1492L122.607 34.2213C123.553 33.383 124.203 32.0345 124.248 30.6756C124.293 29.3054 123.721 27.9172 122.223 27.0443L111.303 17.2101ZM94.5416 83.4061C94.5416 100.701 80.4711 114.772 63.1758 114.772C45.8805 114.772 31.81 100.7 31.81 83.4061C31.81 66.1122 45.8805 52.0403 63.1758 52.0403C80.4711 52.0403 94.5416 66.1108 94.5416 83.4061Z" fill="#FFD227" stroke="#FFD227" stroke-width="0.5"/>
</svg>
