<svg width="126" height="119" viewBox="0 0 126 119" fill="none" xmlns="http://www.w3.org/2000/svg">
<path d="M38.349 60.9138V54.3465H56.5547C56.2776 53.1272 55.862 52.0742 55.3078 51.1875C54.7536 50.3008 54.1439 49.4695 53.4789 48.6936H37.9334V40.8793H74.9267V48.6936H63.704C64.1474 49.3032 64.6184 50.0514 65.1172 50.9381C65.6714 51.7694 66.1148 52.9056 66.4473 54.3465H74.511V60.9138H67.3618C67.3618 62.6319 66.9738 64.2391 66.1979 65.7354C65.422 67.2318 64.3691 68.5619 63.039 69.7257C61.7643 70.8341 60.2956 71.7209 58.633 72.3859C56.9704 73.051 55.2246 73.4389 53.3958 73.5498L67.4449 88.5965L59.2981 94.8313L47.0778 79.5352C46.1356 78.4268 45.2489 77.4015 44.4176 76.4593C43.5863 75.4618 42.8381 74.6028 42.1731 73.8823C41.3972 73.051 40.6767 72.2751 40.0117 71.5546L42.6718 65.5692C43.4477 65.8463 44.1682 66.068 44.8333 66.2342C45.5537 66.3451 46.4127 66.4005 47.4103 66.4005C50.2368 66.4005 52.4259 65.874 53.9777 64.821C55.5849 63.7126 56.4993 62.4102 56.721 60.9138H38.349Z" fill="#FFD227"/>
<circle cx="56.1835" cy="62.9193" r="51.0805" stroke="#FFD227" stroke-width="10"/>
<rect x="84.9077" y="6.83887" width="34.1954" height="54.7126" fill="white"/>
<path d="M94.4824 15.0459L119.103 39.6666" stroke="#FFD227" stroke-width="8.48276" stroke-linecap="round"/>
<path d="M119.103 15.0459L94.4823 39.6666" stroke="#FFD227" stroke-width="8.48276" stroke-linecap="round"/>
<path d="M105.831 47.8223C106.403 46.9368 107.709 46.9668 108.24 47.8778L120.938 69.6611C121.495 70.6162 120.79 71.812 119.684 71.7866L93.2987 71.1794C92.1935 71.1539 91.5437 69.9269 92.1438 68.9985L105.831 47.8223Z" fill="#FFD227"/>
</svg>
