<svg width="104" height="113" viewBox="0 0 104 113" fill="none" xmlns="http://www.w3.org/2000/svg">
<path d="M57.22 35.5659H24.6872C23.6087 35.5659 22.5743 35.9593 21.8117 36.6595C21.0491 37.3598 20.6206 38.3095 20.6206 39.2998C20.6206 40.29 21.0491 41.2398 21.8117 41.94C22.5743 42.6402 23.6087 43.0336 24.6872 43.0336H57.22C58.2985 43.0336 59.3329 42.6402 60.0955 41.94C60.8582 41.2398 61.2866 40.29 61.2866 39.2998C61.2866 38.3095 60.8582 37.3598 60.0955 36.6595C59.3329 35.9593 58.2985 35.5659 57.22 35.5659Z" fill="#FFD227"/>
<path d="M57.22 54.7417H24.6872C23.6087 54.7417 22.5743 55.1351 21.8117 55.8353C21.0491 56.5355 20.6206 57.4853 20.6206 58.4755C20.6206 59.4658 21.0491 60.4155 21.8117 61.1158C22.5743 61.816 23.6087 62.2094 24.6872 62.2094H57.22C58.2985 62.2094 59.3329 61.816 60.0955 61.1158C60.8582 60.4155 61.2866 59.4658 61.2866 58.4755C61.2866 57.4853 60.8582 56.5355 60.0955 55.8353C59.3329 55.1351 58.2985 54.7417 57.22 54.7417Z" fill="#FFD227"/>
<path d="M57.22 73.9175H24.6872C23.6087 73.9175 22.5743 74.3109 21.8117 75.0111C21.0491 75.7113 20.6206 76.661 20.6206 77.6513C20.6206 78.6416 21.0491 79.5913 21.8117 80.2915C22.5743 80.9918 23.6087 81.3852 24.6872 81.3852H57.22C58.2985 81.3852 59.3329 80.9918 60.0955 80.2915C60.8582 79.5913 61.2866 78.6416 61.2866 77.6513C61.2866 76.661 60.8582 75.7113 60.0955 75.0111C59.3329 74.3109 58.2985 73.9175 57.22 73.9175Z" fill="#FFD227"/>
<path d="M89.1366 0.155518H15.4306C13.5151 0.160404 11.6195 0.543144 9.85214 1.28181C8.08483 2.02048 6.48062 3.10057 5.13139 4.4602C3.78216 5.81984 2.71443 7.4323 1.98936 9.20523C1.26429 10.9782 0.896124 12.8767 0.905953 14.7922V105.861C0.90351 106.795 1.14986 107.713 1.61969 108.521C2.08953 109.329 2.76592 109.997 3.5794 110.457C4.39289 110.917 5.31414 111.152 6.24855 111.138C7.18297 111.125 8.09686 110.862 8.89637 110.379L22.6369 102.127C22.8442 101.998 23.0835 101.929 23.3277 101.929C23.5718 101.929 23.8111 101.998 24.0184 102.127L39.2898 111.275C40.0931 111.787 41.0257 112.059 41.9782 112.059C42.9366 112.054 43.8768 111.796 44.7039 111.312L60.05 102.127C60.2573 101.998 60.4966 101.929 60.7408 101.929C60.9849 101.929 61.2242 101.998 61.4315 102.127L75.0974 110.379C75.8995 110.855 76.8153 111.107 77.7484 111.107C78.6815 111.107 79.5973 110.855 80.3994 110.379C81.2026 109.919 81.8706 109.256 82.336 108.456C82.8014 107.657 83.0478 106.748 83.0505 105.823V42.8707H94.7747C97.1285 42.8608 99.3832 41.9214 101.048 40.257C102.712 38.5926 103.651 36.338 103.661 33.9841V14.7922C103.671 12.8767 103.303 10.9782 102.578 9.20523C101.853 7.4323 100.785 5.81984 99.4358 4.4602C98.0866 3.10057 96.4824 2.02048 94.7151 1.28181C92.9478 0.543144 91.0521 0.160404 89.1366 0.155518ZM75.5828 101.94L65.2774 95.7418C63.9045 94.9268 62.3374 94.4966 60.7408 94.4966C59.1441 94.4966 57.577 94.9268 56.2041 95.7418L42.0155 104.255L27.8643 95.7045C26.4751 94.8735 24.8852 94.4378 23.2665 94.4444C21.6477 94.451 20.0615 94.8996 18.679 95.7418L8.37363 101.977V14.7922C8.35877 13.8561 8.53033 12.9263 8.87832 12.0572C9.22631 11.188 9.74376 10.3968 10.4005 9.72958C11.0573 9.06237 11.8403 8.53252 12.7039 8.17089C13.5675 7.80926 14.4944 7.62308 15.4306 7.6232H77.1136C76.1276 9.50169 75.6029 11.5879 75.5828 13.7094V101.828V101.94ZM96.1936 33.9841C96.1936 34.3604 96.0441 34.7213 95.778 34.9874C95.5119 35.2535 95.151 35.403 94.7747 35.403H83.0505V13.8214C83.0356 13.0128 83.182 12.2093 83.4812 11.4579C83.7804 10.7065 84.2263 10.0223 84.793 9.44521C85.3596 8.86814 86.0356 8.4098 86.7814 8.09696C87.5272 7.78412 88.3279 7.62306 89.1366 7.6232C91.0082 7.6232 92.8032 8.3667 94.1266 9.69014C95.4501 11.0136 96.1936 12.8085 96.1936 14.6802V33.9841Z" fill="#FFD227"/>
</svg>
